<svg width="666" height="636" viewBox="0 0 666 636" fill="none" xmlns="http://www.w3.org/2000/svg">
<circle cx="358" cy="358" r="349.442" stroke="#D4493E" stroke-width="17.1155"/>
<circle cx="357.525" cy="358.476" r="225.355" stroke="#D4493E" stroke-width="17.1155"/>
<g clip-path="url(#clip0_202_1997)">
<path d="M140.352 501.785C141.36 490.893 142.1 481.009 143.243 471.126C144.05 464.066 143.512 457.746 140.217 451.022C129.325 428.498 130.401 405.436 141.495 383.585C148.891 369.129 159.111 356.152 167.717 342.302C169.667 339.209 171.347 334.906 170.81 331.477C167.044 307.339 173.768 285.824 186.408 265.72C202.545 240.238 224.867 221.143 250.148 205.275C285.648 183.02 323.771 167.892 365.861 164.53C388.519 162.715 410.236 165.808 430.34 177.507C433.433 179.322 438.005 179.524 441.703 178.986C458.781 176.431 475.791 175.221 492.869 179.322C510.552 183.558 524.605 193.105 536.035 207.023C538.993 210.654 543.565 213.747 548.003 215.361C586.529 229.682 623.038 247.634 653.294 275.94C662.102 284.143 669.767 294.632 674.675 305.591C686.643 332.082 677.633 359.111 653.361 375.113C634.266 387.686 612.348 391.922 590.563 396.427C575.569 399.52 560.576 402.478 545.717 405.907C542.758 406.579 539.262 408.731 537.648 411.286C520.772 438.046 497.509 450.619 465.504 445.442C463.151 445.038 459.319 447.795 457.705 450.148C445.804 467.697 430.206 480.135 409.295 485.111C404.118 486.321 398.537 485.85 393.427 487.262C390.805 488.002 387.309 490.557 386.637 492.977C378.232 522.897 358.868 539.975 328.007 543.337C321.351 544.077 316.98 546.766 312.946 552.145C299.566 569.962 286.052 587.713 271.663 604.656C263.931 613.733 254.989 622.339 245.24 629.197C213.841 651.183 176.525 641.636 158.64 607.682C147.949 587.309 144.655 564.987 142.503 542.53C141.091 528.68 140.957 514.695 140.352 501.785ZM449.973 341.293C448.359 302.565 443.451 264.644 433.635 227.328C429.735 212.402 421.398 200.636 405.933 196.602C395.176 193.778 383.746 191.492 372.786 192.03C321.552 194.652 277.446 215.361 238.382 247.634C223.523 259.871 211.218 274.326 203.217 292.009C193.132 314.399 195.015 335.78 210.949 354.471C219.354 364.355 229.574 373.096 240.197 380.626C282.421 410.479 328.881 432.936 375.072 455.796C380.182 458.351 386.368 459.494 392.15 459.628C415.481 460.368 436.66 443.088 441.232 417.001C445.535 391.989 447.149 366.507 449.973 341.293ZM183.652 366.91C172.02 382.374 161.128 397.906 160.59 418.009C159.985 440.735 172.961 456.267 189.77 468.907C218.883 490.826 251.493 505.618 286.993 513.753C297.347 516.107 308.24 517.317 318.863 517.115C340.782 516.644 353.96 506.29 359.473 488.069C361.087 482.69 360.079 479.866 354.901 477.311C337.823 468.907 320.746 460.435 304.071 451.291C261.175 427.691 216.664 406.31 183.652 366.91ZM456.764 205.813C458.915 213.545 461.067 220.672 462.815 227.934C477.54 288.58 480.162 349.765 471.085 411.488C470.076 418.144 472.564 419.623 478.145 419.556C488.902 419.421 498.921 416.261 505.241 407.722C512.032 398.645 518.419 388.56 522.05 377.937C533.749 343.579 535.497 307.944 530.589 272.309C528.639 258.257 524.47 243.869 518.419 231.094C507.863 208.839 482.044 199.762 456.764 205.813ZM558.155 248.037C557.416 248.709 556.676 249.382 555.937 250.054C563.4 291.875 562.458 333.561 552.776 376.189C569.451 372.76 584.512 370.339 599.237 366.439C611.608 363.145 624.181 359.38 635.477 353.597C653.429 344.319 657.261 327.241 646.705 309.961C644.217 305.86 641.259 301.759 637.628 298.8C626.467 289.656 615.373 280.176 603.203 272.511C588.68 263.434 573.216 256.105 558.155 248.037ZM285.648 545.085C285.178 544.144 284.707 543.203 284.236 542.261C242.617 532.915 204.965 514.829 169.129 489.078C169.129 504.206 167.784 517.855 169.465 531.167C171.953 550.733 174.373 570.769 180.761 589.192C190.106 616.153 214.109 622.07 234.616 602.505C253.039 584.889 268.705 564.315 285.648 545.085Z" fill="#D4493E"/>
<path d="M449.973 341.296C447.149 366.577 445.535 392.059 441.165 417.004C436.593 443.091 415.414 460.371 392.083 459.631C386.301 459.429 380.115 458.286 375.005 455.799C328.881 432.871 282.354 410.482 240.13 380.629C229.507 373.099 219.354 364.358 210.882 354.474C194.947 335.783 193.065 314.402 203.15 292.012C211.151 274.262 223.523 259.873 238.314 247.636C277.378 215.363 321.552 194.655 372.719 192.032C383.678 191.495 395.108 193.781 405.866 196.604C421.263 200.639 429.668 212.405 433.567 227.331C443.451 264.58 448.359 302.501 449.973 341.296ZM219.085 307.88C218.883 326.168 226.279 341.699 239.659 353.264C253.98 365.703 269.848 376.326 285.043 387.622C290.221 391.454 295.868 392.126 299.768 386.21C303.735 380.293 300.642 375.586 295.33 372.023C289.75 368.258 284.035 364.761 278.656 360.794C270.319 354.542 261.914 348.289 254.115 341.431C242.618 331.345 236.566 318.638 237.709 303.039C238.18 296.45 235.894 291.474 228.969 291.138C221.976 290.802 219.287 295.777 219.085 302.232C219.018 304.182 219.085 305.997 219.085 307.88ZM351.203 414.045C351.136 406.246 335.067 396.026 328.074 399.253C322.561 401.808 320.678 409.003 325.183 413.238C329.15 417.004 333.991 420.298 339.034 422.517C345.018 425.206 351.271 420.433 351.203 414.045ZM385.023 448.537C386.502 446.52 390.267 443.36 391.142 439.528C392.352 433.88 380.249 425.61 372.047 425.744C366.332 425.879 362.97 428.837 362.768 434.619C362.566 440.536 373.862 448.537 385.023 448.537Z" fill="#FA5C4F"/>
<path d="M183.652 366.911C216.665 406.311 261.175 427.692 304.071 451.224C320.746 460.368 337.824 468.84 354.901 477.245C360.079 479.8 361.087 482.624 359.473 488.002C353.96 506.223 340.715 516.578 318.863 517.048C308.24 517.25 297.348 516.107 286.993 513.687C251.493 505.618 218.883 490.759 189.77 468.84C172.961 456.2 160.052 440.668 160.59 417.943C161.195 397.906 172.087 382.375 183.652 366.911ZM241.138 478.455C243.357 476.169 246.921 474.017 248.198 470.857C250.35 465.478 247.19 461.713 242.147 459.494C222.312 450.687 206.108 437.576 193.872 419.624C190.375 414.514 186.207 411.085 179.819 414.85C174.642 417.943 174.171 423.59 178.609 430.247C192.191 450.619 210.412 465.478 232.599 475.631C234.684 476.572 237.104 477.11 241.138 478.455Z" fill="#FA5C4F"/>
<path d="M456.763 205.814C482.044 199.763 507.93 208.84 518.419 231.028C524.537 243.87 528.639 258.191 530.588 272.243C535.564 307.878 533.816 343.58 522.049 377.871C518.419 388.494 512.031 398.579 505.24 407.656C498.92 416.195 488.835 419.355 478.144 419.49C472.497 419.557 470.076 418.078 471.085 411.421C480.161 349.766 477.472 288.514 462.815 227.867C461.067 220.673 458.848 213.479 456.763 205.814Z" fill="#FA5C4F"/>
<path d="M558.155 248.04C573.216 256.108 588.68 263.437 603.136 272.514C615.306 280.179 626.4 289.659 637.561 298.803C641.192 301.761 644.15 305.93 646.638 309.964C657.194 327.244 653.361 344.322 635.409 353.6C624.114 359.45 611.541 363.148 599.169 366.442C584.445 370.342 569.384 372.763 552.709 376.192C562.391 333.564 563.332 291.878 555.869 250.057C556.676 249.385 557.416 248.712 558.155 248.04Z" fill="#FA5C4F"/>
<path d="M285.648 545.087C268.772 564.384 253.039 584.891 234.616 602.574C214.109 622.14 190.106 616.223 180.76 589.261C174.373 570.771 171.885 550.735 169.465 531.237C167.784 517.924 169.129 504.275 169.129 489.147C204.965 514.898 242.617 532.918 284.236 542.331C284.707 543.205 285.178 544.146 285.648 545.087ZM224.06 575.747C222.447 574.402 219.69 570.368 216.328 569.83C207.453 568.485 200.124 565.056 193.804 558.803C189.568 554.635 184.526 554.567 180.29 558.938C176.256 563.106 177.13 567.746 180.828 571.847C189.367 581.462 200.259 586.706 212.966 587.984C219.69 588.656 224.262 584.42 224.06 575.747Z" fill="#FA5C4F"/>
<path d="M219.085 307.878C219.085 305.995 219.018 304.112 219.085 302.23C219.287 295.775 221.909 290.8 228.968 291.136C235.894 291.472 238.18 296.515 237.709 303.037C236.633 318.635 242.685 331.343 254.115 341.428C261.914 348.286 270.319 354.539 278.656 360.792C284.035 364.826 289.75 368.323 295.33 372.021C300.642 375.584 303.735 380.223 299.768 386.207C295.868 392.124 290.288 391.452 285.043 387.619C269.781 376.324 253.913 365.701 239.659 353.262C226.279 341.697 218.883 326.233 219.085 307.878Z" fill="#D4493E"/>
<path d="M351.203 414.043C351.271 420.431 345.085 425.205 339.034 422.582C333.991 420.364 329.15 417.069 325.183 413.304C320.678 409.068 322.561 401.806 328.074 399.319C335.067 396.024 351.069 406.244 351.203 414.043Z" fill="#D4493E"/>
<path d="M385.023 448.537C373.929 448.537 362.566 440.536 362.768 434.687C362.97 428.905 366.332 425.946 372.047 425.812C380.182 425.61 392.352 433.947 391.142 439.595C390.267 443.36 386.502 446.52 385.023 448.537Z" fill="#D4493E"/>
<path d="M241.138 478.455C237.104 477.11 234.751 476.572 232.599 475.631C210.411 465.478 192.191 450.619 178.609 430.246C174.239 423.657 174.642 417.942 179.819 414.849C186.207 411.084 190.375 414.513 193.871 419.623C206.108 437.575 222.312 450.686 242.147 459.494C247.189 461.713 250.35 465.478 248.198 470.857C246.921 473.95 243.29 476.169 241.138 478.455Z" fill="#D4493E"/>
<path d="M224.061 575.746C224.262 584.42 219.69 588.656 212.967 587.983C200.259 586.706 189.367 581.529 180.828 571.847C177.197 567.745 176.323 563.106 180.29 558.937C184.459 554.567 189.569 554.702 193.804 558.803C200.192 565.056 207.453 568.418 216.328 569.83C219.69 570.368 222.447 574.402 224.061 575.746Z" fill="#D4493E"/>
</g>
<defs>
<clipPath id="clip0_202_1997">
<rect width="547.434" height="476.971" fill="white" transform="translate(132.552 164.061)"/>
</clipPath>
</defs>
</svg>
