<svg width="32" height="32" viewBox="0 0 32 32" fill="none" xmlns="http://www.w3.org/2000/svg">
<circle cx="16" cy="16" r="16" fill="#FA5C4F"/>
<path d="M24.7143 10.7692H5.85714C5.62981 10.7692 5.4118 10.8584 5.25105 11.0171C5.09031 11.1757 5 11.391 5 11.6154V16.6923C5.00256 18.1329 5.31464 19.5565 5.91562 20.8692C6.5166 22.182 7.39282 23.3539 8.48643 24.3077H5.85714C5.62981 24.3077 5.4118 24.3968 5.25105 24.5555C5.09031 24.7142 5 24.9294 5 25.1538C5 25.3783 5.09031 25.5935 5.25105 25.7522C5.4118 25.9109 5.62981 26 5.85714 26H24.7143C24.9416 26 25.1596 25.9109 25.3204 25.7522C25.4811 25.5935 25.5714 25.3783 25.5714 25.1538C25.5714 24.9294 25.4811 24.7142 25.3204 24.5555C25.1596 24.3968 24.9416 24.3077 24.7143 24.3077H22.085C23.3977 23.1591 24.3932 21.7 24.9779 20.0674C26.0665 20.0012 27.0887 19.5277 27.836 18.7433C28.5833 17.959 28.9996 16.9229 29 15.8462V15C29 13.8779 28.5485 12.8018 27.7447 12.0084C26.941 11.215 25.8509 10.7692 24.7143 10.7692ZM27.2857 15.8462C27.2853 16.3936 27.1057 16.9262 26.7736 17.3647C26.4415 17.8031 25.9747 18.1237 25.4429 18.2788C25.5278 17.7541 25.5708 17.2237 25.5714 16.6923V12.6075C26.0726 12.7824 26.5066 13.1064 26.8136 13.5349C27.1206 13.9633 27.2856 14.4752 27.2857 15V15.8462ZM14.4286 8.23077V4.84615C14.4286 4.62174 14.5189 4.40652 14.6796 4.24783C14.8404 4.08915 15.0584 4 15.2857 4C15.513 4 15.7311 4.08915 15.8918 4.24783C16.0526 4.40652 16.1429 4.62174 16.1429 4.84615V8.23077C16.1429 8.45518 16.0526 8.67041 15.8918 8.82909C15.7311 8.98777 15.513 9.07692 15.2857 9.07692C15.0584 9.07692 14.8404 8.98777 14.6796 8.82909C14.5189 8.67041 14.4286 8.45518 14.4286 8.23077ZM17.8571 8.23077V4.84615C17.8571 4.62174 17.9474 4.40652 18.1082 4.24783C18.2689 4.08915 18.487 4 18.7143 4C18.9416 4 19.1596 4.08915 19.3204 4.24783C19.4811 4.40652 19.5714 4.62174 19.5714 4.84615V8.23077C19.5714 8.45518 19.4811 8.67041 19.3204 8.82909C19.1596 8.98777 18.9416 9.07692 18.7143 9.07692C18.487 9.07692 18.2689 8.98777 18.1082 8.82909C17.9474 8.67041 17.8571 8.45518 17.8571 8.23077ZM11 8.23077V4.84615C11 4.62174 11.0903 4.40652 11.2511 4.24783C11.4118 4.08915 11.6298 4 11.8571 4C12.0845 4 12.3025 4.08915 12.4632 4.24783C12.624 4.40652 12.7143 4.62174 12.7143 4.84615V8.23077C12.7143 8.45518 12.624 8.67041 12.4632 8.82909C12.3025 8.98777 12.0845 9.07692 11.8571 9.07692C11.6298 9.07692 11.4118 8.98777 11.2511 8.82909C11.0903 8.67041 11 8.45518 11 8.23077Z" fill="white"/>
</svg>
