<svg width="8" height="15" viewBox="0 0 8 15" fill="none" xmlns="http://www.w3.org/2000/svg">
<path d="M7.59457 13.6543C7.64255 13.699 7.68103 13.753 7.70773 13.8129C7.73442 13.8728 7.74877 13.9374 7.74993 14.003C7.75108 14.0686 7.73902 14.1337 7.71446 14.1945C7.6899 14.2553 7.65334 14.3106 7.60696 14.357C7.56059 14.4033 7.50535 14.4399 7.44454 14.4645C7.38373 14.489 7.31859 14.5011 7.25302 14.4999C7.18744 14.4988 7.12277 14.4844 7.06287 14.4577C7.00296 14.431 6.94904 14.3925 6.90433 14.3446L0.392704 7.83293C0.301248 7.74136 0.249878 7.61724 0.249878 7.48782C0.249878 7.3584 0.301248 7.23427 0.392704 7.1427L6.90433 0.631074C6.99691 0.544808 7.11936 0.497844 7.24588 0.500076C7.37241 0.502308 7.49312 0.553563 7.5826 0.643041C7.67208 0.732519 7.72333 0.853235 7.72556 0.979757C7.7278 1.10628 7.68083 1.22873 7.59457 1.32131L1.42887 7.48782L7.59457 13.6543Z" fill="#8A949B"/>
</svg>
