<svg width="804" height="23" viewBox="0 0 804 23" fill="none" xmlns="http://www.w3.org/2000/svg">
<path d="M20.1726 0L37.6426 16.9724H2.70262L20.1726 0Z" fill="white"/>
<path d="M49.5178 0L66.9878 16.9724H32.0478L49.5178 0Z" fill="white"/>
<path d="M78.863 0L96.333 16.9724H61.393L78.863 0Z" fill="white"/>
<path d="M108.208 0L125.678 16.9724H90.7382L108.208 0Z" fill="white"/>
<path d="M137.553 0L155.023 16.9724H120.083L137.553 0Z" fill="white"/>
<path d="M166.899 0L184.369 16.9724H149.429L166.899 0Z" fill="white"/>
<path d="M196.244 0L213.714 16.9724H178.774L196.244 0Z" fill="white"/>
<path d="M225.589 0L243.059 16.9724H208.119L225.589 0Z" fill="white"/>
<path d="M254.934 0L272.404 16.9724H237.464L254.934 0Z" fill="white"/>
<path d="M284.279 0L301.749 16.9724H266.809L284.279 0Z" fill="white"/>
<path d="M313.625 0L331.095 16.9724H296.155L313.625 0Z" fill="white"/>
<path d="M342.97 0L360.44 16.9724H325.5L342.97 0Z" fill="white"/>
<path d="M372.315 0L389.785 16.9724H354.845L372.315 0Z" fill="white"/>
<path d="M401.66 0L419.13 16.9724H384.19L401.66 0Z" fill="white"/>
<path d="M431.005 0L448.475 16.9724H413.535L431.005 0Z" fill="white"/>
<path d="M460.351 0L477.821 16.9724H442.881L460.351 0Z" fill="white"/>
<path d="M489.696 0L507.166 16.9724H472.226L489.696 0Z" fill="white"/>
<path d="M519.041 0L536.511 16.9724H501.571L519.041 0Z" fill="white"/>
<path d="M548.386 0L565.856 16.9724H530.916L548.386 0Z" fill="white"/>
<path d="M577.732 0L595.201 16.9724H560.262L577.732 0Z" fill="white"/>
<path d="M607.077 0L624.547 16.9724H589.607L607.077 0Z" fill="white"/>
<path d="M636.422 0L653.892 16.9724H618.952L636.422 0Z" fill="white"/>
<path d="M665.767 0L683.237 16.9724H648.297L665.767 0Z" fill="white"/>
<path d="M695.112 0L712.582 16.9724H677.642L695.112 0Z" fill="white"/>
<path d="M724.458 0L741.928 16.9724H706.988L724.458 0Z" fill="white"/>
<path d="M753.803 0L771.273 16.9724H736.333L753.803 0Z" fill="white"/>
<path d="M783.148 0L800.618 16.9724H765.678L783.148 0Z" fill="white"/>
</svg>
