<svg width="14" height="15" viewBox="0 0 14 15" fill="none" xmlns="http://www.w3.org/2000/svg">
<path d="M13.8447 13.6543C13.8926 13.699 13.9311 13.753 13.9578 13.8129C13.9844 13.8728 13.9988 13.9374 13.9999 14.003C14.0011 14.0686 13.989 14.1337 13.9645 14.1945C13.9399 14.2553 13.9034 14.3106 13.8571 14.357C13.8107 14.4033 13.7555 14.4399 13.6948 14.4645C13.634 14.489 13.5689 14.5011 13.5034 14.4999C13.4379 14.4988 13.3733 14.4844 13.3134 14.4577C13.2536 14.431 13.1997 14.3925 13.155 14.3446L6.64887 7.83293C6.55749 7.74136 6.50617 7.61724 6.50617 7.48782C6.50617 7.3584 6.55749 7.23427 6.64887 7.1427L13.155 0.631074C13.2475 0.544808 13.3699 0.497844 13.4963 0.500076C13.6227 0.502308 13.7433 0.553563 13.8327 0.643041C13.9221 0.732519 13.9734 0.853235 13.9756 0.979757C13.9778 1.10628 13.9309 1.22873 13.8447 1.32131L7.68417 7.48782L13.8447 13.6543ZM1.178 7.48782L7.33853 1.32131C7.42472 1.22873 7.47165 1.10628 7.46941 0.979757C7.46718 0.853235 7.41597 0.732519 7.32657 0.643041C7.23717 0.553563 7.11655 0.502308 6.99014 0.500076C6.86372 0.497844 6.74137 0.544808 6.64887 0.631074L0.142706 7.1427C0.0513267 7.23427 0 7.3584 0 7.48782C0 7.61724 0.0513267 7.74136 0.142706 7.83293L6.64887 14.3446C6.69355 14.3925 6.74742 14.431 6.80727 14.4577C6.86713 14.4844 6.93174 14.4988 6.99726 14.4999C7.06278 14.5011 7.12786 14.489 7.18862 14.4645C7.24938 14.4399 7.30458 14.4033 7.35091 14.357C7.39725 14.3106 7.43378 14.2553 7.45832 14.1945C7.48286 14.1337 7.49491 14.0686 7.49376 14.003C7.4926 13.9374 7.47826 13.8728 7.45159 13.8129C7.42492 13.753 7.38647 13.699 7.33853 13.6543L1.178 7.48782Z" fill="black"/>
</svg>
