<svg width="25" height="27" viewBox="0 0 25 27" fill="none" xmlns="http://www.w3.org/2000/svg">
<path d="M22.2544 2.66956H19.2544V1.66956C19.2544 1.40434 19.149 1.14999 18.9615 0.962449C18.774 0.774912 18.5196 0.669556 18.2544 0.669556C17.9892 0.669556 17.7348 0.774912 17.5473 0.962449C17.3598 1.14999 17.2544 1.40434 17.2544 1.66956V2.66956H7.25439V1.66956C7.25439 1.40434 7.14904 1.14999 6.9615 0.962449C6.77396 0.774912 6.51961 0.669556 6.25439 0.669556C5.98918 0.669556 5.73482 0.774912 5.54729 0.962449C5.35975 1.14999 5.25439 1.40434 5.25439 1.66956V2.66956H2.25439C1.72396 2.66956 1.21525 2.88027 0.840181 3.25534C0.465108 3.63041 0.254395 4.13912 0.254395 4.66956V24.6696C0.254395 25.2 0.465108 25.7087 0.840181 26.0838C1.21525 26.4588 1.72396 26.6696 2.25439 26.6696H22.2544C22.7848 26.6696 23.2935 26.4588 23.6686 26.0838C24.0437 25.7087 24.2544 25.2 24.2544 24.6696V4.66956C24.2544 4.13912 24.0437 3.63041 23.6686 3.25534C23.2935 2.88027 22.7848 2.66956 22.2544 2.66956ZM5.25439 4.66956V5.66956C5.25439 5.93477 5.35975 6.18913 5.54729 6.37666C5.73482 6.5642 5.98918 6.66956 6.25439 6.66956C6.51961 6.66956 6.77396 6.5642 6.9615 6.37666C7.14904 6.18913 7.25439 5.93477 7.25439 5.66956V4.66956H17.2544V5.66956C17.2544 5.93477 17.3598 6.18913 17.5473 6.37666C17.7348 6.5642 17.9892 6.66956 18.2544 6.66956C18.5196 6.66956 18.774 6.5642 18.9615 6.37666C19.149 6.18913 19.2544 5.93477 19.2544 5.66956V4.66956H22.2544V8.66956H2.25439V4.66956H5.25439ZM22.2544 24.6696H2.25439V10.6696H22.2544V24.6696ZM10.2544 13.6696V21.6696C10.2544 21.9348 10.149 22.1891 9.9615 22.3767C9.77396 22.5642 9.51961 22.6696 9.25439 22.6696C8.98918 22.6696 8.73482 22.5642 8.54729 22.3767C8.35975 22.1891 8.25439 21.9348 8.25439 21.6696V15.2871L7.70189 15.5646C7.46453 15.6832 7.18973 15.7028 6.93796 15.6188C6.6862 15.5349 6.47808 15.3544 6.35939 15.1171C6.24071 14.8797 6.22118 14.6049 6.3051 14.3531C6.38903 14.1014 6.56953 13.8932 6.80689 13.7746L8.80689 12.7746C8.95941 12.6982 9.12891 12.6622 9.29928 12.6698C9.46965 12.6775 9.63524 12.7286 9.78029 12.8183C9.92535 12.908 10.0451 13.0333 10.128 13.1823C10.211 13.3313 10.2545 13.499 10.2544 13.6696ZM17.6494 17.4758L15.2544 20.6696H17.2544C17.5196 20.6696 17.774 20.7749 17.9615 20.9624C18.149 21.15 18.2544 21.4043 18.2544 21.6696C18.2544 21.9348 18.149 22.1891 17.9615 22.3767C17.774 22.5642 17.5196 22.6696 17.2544 22.6696H13.2544C13.0687 22.6696 12.8866 22.6178 12.7287 22.5202C12.5707 22.4226 12.443 22.2829 12.36 22.1168C12.2769 21.9507 12.2418 21.7647 12.2584 21.5798C12.2751 21.3948 12.343 21.2181 12.4544 21.0696L16.0519 16.2733C16.1337 16.1644 16.1924 16.0399 16.2244 15.9074C16.2564 15.775 16.261 15.6374 16.2379 15.5031C16.2148 15.3689 16.1645 15.2407 16.09 15.1266C16.0156 15.0125 15.9187 14.9147 15.8052 14.8394C15.6916 14.7641 15.5639 14.7128 15.4298 14.6886C15.2957 14.6644 15.1581 14.6679 15.0254 14.6988C14.8927 14.7297 14.7678 14.7874 14.6582 14.8684C14.5486 14.9493 14.4567 15.0518 14.3881 15.1696C14.3244 15.2869 14.2378 15.3903 14.1335 15.4737C14.0292 15.557 13.9092 15.6186 13.7807 15.6548C13.6521 15.6911 13.5177 15.7012 13.3852 15.6846C13.2527 15.668 13.1248 15.6251 13.0092 15.5583C12.8935 15.4915 12.7925 15.4022 12.7119 15.2957C12.6313 15.1892 12.5729 15.0677 12.5401 14.9382C12.5072 14.8088 12.5006 14.6741 12.5207 14.5421C12.5408 14.4101 12.5871 14.2834 12.6569 14.1696C12.9872 13.5979 13.4969 13.1512 14.1069 12.8987C14.7169 12.6461 15.3932 12.6019 16.0309 12.7728C16.6686 12.9437 17.2322 13.3202 17.6342 13.8439C18.0362 14.3676 18.2542 15.0093 18.2544 15.6696C18.2565 16.3217 18.0439 16.9565 17.6494 17.4758Z" fill="#FA5C4F"/>
</svg>
