<svg width="20" height="20" viewBox="0 0 20 20" fill="none" xmlns="http://www.w3.org/2000/svg">
<path d="M19.7076 18.2924C19.8005 18.3854 19.8742 18.4957 19.9245 18.6171C19.9747 18.7384 20.0006 18.8686 20.0006 18.9999C20.0006 19.1313 19.9747 19.2614 19.9245 19.3828C19.8742 19.5042 19.8005 19.6145 19.7076 19.7074C19.6147 19.8004 19.5044 19.8741 19.383 19.9243C19.2616 19.9746 19.1315 20.0005 19.0001 20.0005C18.8687 20.0005 18.7386 19.9746 18.6172 19.9243C18.4958 19.8741 18.3855 19.8004 18.2926 19.7074L10.0001 11.4137L1.70757 19.7074C1.51993 19.8951 1.26543 20.0005 1.00007 20.0005C0.734704 20.0005 0.480208 19.8951 0.292568 19.7074C0.104927 19.5198 -0.000488276 19.2653 -0.000488281 18.9999C-0.000488286 18.7346 0.104927 18.4801 0.292568 18.2924L8.58632 9.99995L0.292568 1.70745C0.104927 1.5198 -0.000488281 1.26531 -0.000488281 0.999946C-0.000488281 0.734582 0.104927 0.480086 0.292568 0.292446C0.480208 0.104805 0.734704 -0.000610352 1.00007 -0.000610352C1.26543 -0.000610352 1.51993 0.104805 1.70757 0.292446L10.0001 8.5862L18.2926 0.292446C18.4802 0.104805 18.7347 -0.000610357 19.0001 -0.000610352C19.2654 -0.000610346 19.5199 0.104805 19.7076 0.292446C19.8952 0.480086 20.0006 0.734582 20.0006 0.999946C20.0006 1.26531 19.8952 1.5198 19.7076 1.70745L11.4138 9.99995L19.7076 18.2924Z" fill="#FA5C4F"/>
</svg>
