<svg width="26" height="24" viewBox="0 0 26 24" fill="none" xmlns="http://www.w3.org/2000/svg">
<path d="M6.46154 4.61538V0.923077C6.46154 0.678262 6.55879 0.443473 6.7319 0.270363C6.90501 0.0972524 7.1398 0 7.38462 0C7.62943 0 7.86422 0.0972524 8.03733 0.270363C8.21044 0.443473 8.30769 0.678262 8.30769 0.923077V4.61538C8.30769 4.8602 8.21044 5.09499 8.03733 5.2681C7.86422 5.44121 7.62943 5.53846 7.38462 5.53846C7.1398 5.53846 6.90501 5.44121 6.7319 5.2681C6.55879 5.09499 6.46154 4.8602 6.46154 4.61538ZM11.0769 5.53846C11.3217 5.53846 11.5565 5.44121 11.7296 5.2681C11.9027 5.09499 12 4.8602 12 4.61538V0.923077C12 0.678262 11.9027 0.443473 11.7296 0.270363C11.5565 0.0972524 11.3217 0 11.0769 0C10.8321 0 10.5973 0.0972524 10.4242 0.270363C10.2511 0.443473 10.1538 0.678262 10.1538 0.923077V4.61538C10.1538 4.8602 10.2511 5.09499 10.4242 5.2681C10.5973 5.44121 10.8321 5.53846 11.0769 5.53846ZM14.7692 5.53846C15.014 5.53846 15.2488 5.44121 15.4219 5.2681C15.5951 5.09499 15.6923 4.8602 15.6923 4.61538V0.923077C15.6923 0.678262 15.5951 0.443473 15.4219 0.270363C15.2488 0.0972524 15.014 0 14.7692 0C14.5244 0 14.2896 0.0972524 14.1165 0.270363C13.9434 0.443473 13.8462 0.678262 13.8462 0.923077V4.61538C13.8462 4.8602 13.9434 5.09499 14.1165 5.2681C14.2896 5.44121 14.5244 5.53846 14.7692 5.53846ZM25.8462 12V12.9231C25.8458 14.0972 25.398 15.227 24.5939 16.0825C23.7898 16.9381 22.6899 17.455 21.5181 17.5281C20.8884 19.3091 19.8164 20.9009 18.4027 22.1538H21.2308C21.4756 22.1538 21.7104 22.2511 21.8835 22.4242C22.0566 22.5973 22.1538 22.8321 22.1538 23.0769C22.1538 23.3217 22.0566 23.5565 21.8835 23.7296C21.7104 23.9027 21.4756 24 21.2308 24H0.923077C0.678262 24 0.443473 23.9027 0.270363 23.7296C0.0972524 23.5565 0 23.3217 0 23.0769C0 22.8321 0.0972524 22.5973 0.270363 22.4242C0.443473 22.2511 0.678262 22.1538 0.923077 22.1538H3.75462C2.57689 21.1133 1.63326 19.8349 0.986052 18.4028C0.338839 16.9707 0.00275868 15.4177 0 13.8462V8.30769C0 8.06288 0.0972524 7.82809 0.270363 7.65498C0.443473 7.48187 0.678262 7.38462 0.923077 7.38462H21.2308C22.4548 7.38462 23.6288 7.87088 24.4943 8.73643C25.3599 9.60198 25.8462 10.7759 25.8462 12ZM20.3077 9.23077H1.84615V13.8462C1.84971 15.5793 2.33951 17.2767 3.25985 18.7453C4.18019 20.214 5.49414 21.3949 7.05231 22.1538H15.1015C16.6597 21.3949 17.9737 20.214 18.894 18.7453C19.8143 17.2767 20.3041 15.5793 20.3077 13.8462V9.23077ZM24 12C23.9998 11.4275 23.8222 10.8691 23.4916 10.4017C23.161 9.93428 22.6936 9.58084 22.1538 9.39V13.8462C22.1532 14.4258 22.1069 15.0045 22.0154 15.5769C22.5881 15.4077 23.0908 15.0579 23.4485 14.5796C23.8061 14.1014 23.9996 13.5203 24 12.9231V12Z" fill="#FA5C4F"/>
</svg>
