<svg width="283" height="276" viewBox="0 0 283 276" fill="none" xmlns="http://www.w3.org/2000/svg">
<path d="M245.976 135.027C235.165 135.027 224.796 130.732 217.151 123.087C209.506 115.442 205.211 105.073 205.211 94.2616C205.211 92.0992 204.352 90.0255 202.823 88.4965C201.294 86.9674 199.22 86.1085 197.058 86.1085C186.246 86.1085 175.877 81.8135 168.232 74.1685C160.587 66.5235 156.292 56.1546 156.292 45.3428C156.292 43.1805 155.433 41.1067 153.904 39.5777C152.375 38.0487 150.301 37.1897 148.139 37.1897C127.176 37.1897 106.684 43.406 89.2537 55.0524C71.8237 66.6988 58.2386 83.2522 50.2164 102.619C42.1942 121.987 40.0953 143.298 44.1849 163.858C48.2746 184.418 58.3692 203.304 73.1923 218.127C88.0153 232.95 106.901 243.045 127.461 247.134C148.021 251.224 169.333 249.125 188.7 241.103C208.067 233.081 224.62 219.496 236.267 202.066C247.913 184.635 254.13 164.143 254.13 143.18C254.13 141.018 253.271 138.944 251.742 137.415C250.213 135.886 248.139 135.027 245.976 135.027ZM94.6443 114.145C96.3563 112.439 98.5355 111.278 100.907 110.81C103.278 110.341 105.735 110.586 107.967 111.513C110.199 112.44 112.107 114.007 113.449 116.018C114.79 118.028 115.507 120.391 115.507 122.808C115.507 125.225 114.79 127.587 113.449 129.598C112.107 131.608 110.199 133.176 107.967 134.102C105.735 135.029 103.278 135.274 100.907 134.805C98.5355 134.337 96.3563 133.176 94.6443 131.47C93.5041 130.334 92.5995 128.984 91.9823 127.498C91.365 126.011 91.0473 124.417 91.0473 122.808C91.0473 121.198 91.365 119.604 91.9823 118.118C92.5995 116.631 93.5041 115.281 94.6443 114.145ZM120.123 188.542C118.411 190.248 116.232 191.409 113.86 191.877C111.489 192.346 109.032 192.101 106.8 191.174C104.568 190.247 102.66 188.68 101.319 186.67C99.9766 184.659 99.2604 182.297 99.2604 179.88C99.2604 177.463 99.9766 175.1 101.319 173.09C102.66 171.079 104.568 169.512 106.8 168.585C109.032 167.658 111.489 167.413 113.86 167.882C116.232 168.35 118.411 169.511 120.123 171.217C121.259 172.354 122.159 173.704 122.773 175.189C123.386 176.675 123.701 178.266 123.699 179.874C123.698 181.481 123.379 183.072 122.762 184.556C122.144 186.04 121.241 187.387 120.102 188.522L120.123 188.542ZM143.563 147.777C141.857 146.065 140.696 143.885 140.228 141.514C139.759 139.143 140.004 136.686 140.931 134.454C141.858 132.222 143.425 130.314 145.436 128.972C147.446 127.63 149.809 126.914 152.226 126.914C154.643 126.914 157.006 127.63 159.016 128.972C161.026 130.314 162.593 132.222 163.52 134.454C164.447 136.686 164.692 139.143 164.223 141.514C163.755 143.885 162.594 146.065 160.888 147.777C159.751 148.915 158.4 149.818 156.912 150.434C155.425 151.049 153.831 151.365 152.221 151.363C150.612 151.362 149.018 151.042 147.533 150.423C146.047 149.804 144.698 148.898 143.563 147.756V147.777ZM185.348 196.695C183.636 198.401 181.457 199.562 179.085 200.03C176.714 200.499 174.257 200.254 172.025 199.327C169.793 198.4 167.885 196.833 166.544 194.823C165.202 192.812 164.485 190.45 164.485 188.033C164.485 185.616 165.202 183.253 166.544 181.243C167.885 179.232 169.793 177.665 172.025 176.738C174.257 175.811 176.714 175.566 179.085 176.035C181.457 176.503 183.636 177.664 185.348 179.37C186.483 180.507 187.384 181.857 187.998 183.342C188.611 184.828 188.926 186.42 188.924 188.027C188.922 189.634 188.604 191.225 187.987 192.709C187.369 194.193 186.466 195.541 185.327 196.675L185.348 196.695Z" fill="#E6C8A1"/>
<path fill-rule="evenodd" clip-rule="evenodd" d="M219.419 21.0742C212.573 21.0742 207.023 26.6243 207.023 33.4708V51.5171C207.023 51.5208 207.023 51.5244 207.023 51.5281V76.8587L221.295 63.9137H267.843C274.69 63.9137 280.24 58.3636 280.24 51.5171V33.4708C280.24 26.6243 274.69 21.0742 267.843 21.0742H219.419Z" fill="#FFEFDB"/>
<path d="M207.023 51.5281H208.882L208.882 51.5265L207.023 51.5281ZM207.023 76.8587H205.163V81.0556L208.272 78.236L207.023 76.8587ZM221.295 63.9137V62.0542H220.578L220.046 62.5363L221.295 63.9137ZM208.882 33.4708C208.882 27.6513 213.6 22.9337 219.419 22.9337V19.2147C211.546 19.2147 205.163 25.5974 205.163 33.4708H208.882ZM208.882 51.5171V33.4708H205.163V51.5171H208.882ZM208.882 51.5265C208.882 51.5233 208.882 51.5202 208.882 51.5171H205.163C205.163 51.5213 205.163 51.5255 205.163 51.5297L208.882 51.5265ZM208.882 76.8587V51.5281H205.163V76.8587H208.882ZM220.046 62.5363L205.773 75.4813L208.272 78.236L222.545 65.291L220.046 62.5363ZM267.843 62.0542H221.295V65.7732H267.843V62.0542ZM278.38 51.5171C278.38 57.3366 273.663 62.0542 267.843 62.0542V65.7732C275.717 65.7732 282.099 59.3905 282.099 51.5171H278.38ZM278.38 33.4708V51.5171H282.099V33.4708H278.38ZM267.843 22.9337C273.663 22.9337 278.38 27.6513 278.38 33.4708H282.099C282.099 25.5974 275.717 19.2147 267.843 19.2147V22.9337ZM219.419 22.9337H267.843V19.2147H219.419V22.9337Z" fill="#E5C8A1"/>
<path fill-rule="evenodd" clip-rule="evenodd" d="M87.2408 271.485C94.0872 271.485 99.6373 265.934 99.6373 259.088L99.6373 249.21L99.6373 214.46L85.0475 227.693L37.1896 227.693C30.3432 227.693 24.7931 233.243 24.7931 240.09L24.7931 259.088C24.7931 265.934 30.3432 271.485 37.1896 271.485L87.2408 271.485Z" fill="#FFEFDB"/>
<path d="M99.6373 259.088L97.7778 259.088L97.7778 259.088L99.6373 259.088ZM99.6373 249.21L101.497 249.21L99.6373 249.21ZM99.6373 214.46L101.497 214.46L101.497 210.264L98.3881 213.083L99.6373 214.46ZM85.0475 227.693L85.0475 229.553L85.7651 229.553L86.2967 229.07L85.0475 227.693ZM24.7931 240.09L26.6526 240.09L24.7931 240.09ZM24.7931 259.088L22.9336 259.088L24.7931 259.088ZM97.7778 259.088C97.7778 264.908 93.0602 269.625 87.2408 269.625L87.2408 273.344C95.1142 273.344 101.497 266.961 101.497 259.088L97.7778 259.088ZM97.7778 249.21L97.7778 259.088L101.497 259.088L101.497 249.21L97.7778 249.21ZM97.7778 214.46L97.7778 249.21L101.497 249.21L101.497 214.46L97.7778 214.46ZM86.2967 229.07L100.887 215.838L98.3881 213.083L83.7982 226.316L86.2967 229.07ZM37.1896 229.553L85.0475 229.553L85.0475 225.834L37.1896 225.834L37.1896 229.553ZM26.6526 240.09C26.6526 234.27 31.3702 229.553 37.1896 229.553L37.1896 225.834C29.3162 225.834 22.9336 232.216 22.9336 240.09L26.6526 240.09ZM26.6526 259.088L26.6526 240.09L22.9336 240.09L22.9336 259.088L26.6526 259.088ZM37.1896 269.625C31.3702 269.625 26.6526 264.908 26.6526 259.088L22.9336 259.088C22.9336 266.961 29.3162 273.344 37.1896 273.344L37.1896 269.625ZM87.2408 269.625L37.1896 269.625L37.1896 273.344L87.2408 273.344L87.2408 269.625Z" fill="#E5C8A1"/>
<path d="M250.057 53.1155L246.431 47.8635L243.382 53.1155H237.113L243.348 43.4586L236.944 34.2083H243.449L247.075 39.4264L250.125 34.2083H256.393L250.057 43.7297L256.563 53.1155H250.057ZM265.741 28.0075C268.158 28.0075 270.09 28.64 271.536 29.905C273.004 31.17 273.738 32.9546 273.738 35.2587C273.738 37.3821 273.038 39.0424 271.637 40.2396C270.259 41.4143 268.429 42.0129 266.148 42.0355L265.979 44.5768H260.896L260.727 38.2743H262.76C264.499 38.2743 265.82 38.0597 266.724 37.6305C267.65 37.2014 268.113 36.422 268.113 35.2926C268.113 34.5019 267.899 33.8807 267.469 33.4289C267.04 32.9772 266.442 32.7513 265.674 32.7513C264.86 32.7513 264.228 32.9884 263.776 33.4628C263.324 33.9146 263.098 34.5358 263.098 35.3264H257.643C257.598 33.9485 257.88 32.7061 258.49 31.5992C259.123 30.4923 260.049 29.6226 261.269 28.9901C262.511 28.3351 264.002 28.0075 265.741 28.0075ZM263.505 53.3866C262.488 53.3866 261.653 53.0929 260.998 52.5056C260.365 51.8957 260.049 51.1502 260.049 50.2693C260.049 49.3657 260.365 48.6089 260.998 47.999C261.653 47.3891 262.488 47.0842 263.505 47.0842C264.499 47.0842 265.312 47.3891 265.945 47.999C266.6 48.6089 266.927 49.3657 266.927 50.2693C266.927 51.1502 266.6 51.8957 265.945 52.5056C265.312 53.0929 264.499 53.3866 263.505 53.3866Z" fill="#E5C8A1"/>
<path d="M75.9884 236.27C78.4055 236.27 80.3369 236.902 81.7826 238.167C83.2509 239.432 83.985 241.217 83.985 243.521C83.985 245.644 83.2848 247.305 81.8842 248.502C80.5063 249.676 78.6765 250.275 76.395 250.298L76.2256 252.839H71.143L70.9736 246.537H73.0066C74.746 246.537 76.0675 246.322 76.9711 245.893C77.8972 245.464 78.3603 244.684 78.3603 243.555C78.3603 242.764 78.1457 242.143 77.7165 241.691C77.2873 241.239 76.6887 241.013 75.9207 241.013C75.1074 241.013 74.4749 241.251 74.0231 241.725C73.5714 242.177 73.3455 242.798 73.3455 243.589H67.8902C67.845 242.211 68.1273 240.968 68.7373 239.861C69.3698 238.755 70.2959 237.885 71.5157 237.252C72.7581 236.597 74.249 236.27 75.9884 236.27ZM73.7521 261.649C72.7356 261.649 71.8998 261.355 71.2447 260.768C70.6122 260.158 70.2959 259.412 70.2959 258.531C70.2959 257.628 70.6122 256.871 71.2447 256.261C71.8998 255.651 72.7356 255.346 73.7521 255.346C74.746 255.346 75.5592 255.651 76.1917 256.261C76.8468 256.871 77.1744 257.628 77.1744 258.531C77.1744 259.412 76.8468 260.158 76.1917 260.768C75.5592 261.355 74.746 261.649 73.7521 261.649Z" fill="#E5C8A1"/>
<path d="M236.155 44.3178C236.155 47.0302 235.077 49.6315 233.159 51.5495C231.241 53.4674 228.64 54.5449 225.927 54.5449C223.215 54.5449 220.614 53.4674 218.696 51.5495C216.778 49.6315 215.7 47.0302 215.7 44.3178C215.7 40.7417 216.944 36.8264 219.11 33.5746C221.224 30.4053 223.773 28.5121 225.927 28.5121C228.082 28.5121 230.631 30.4053 232.745 33.5746C234.911 36.8264 236.155 40.7417 236.155 44.3178Z" fill="#E5C8A1"/>
<path d="M34.7103 256.66C34.7103 256.4 34.8137 256.151 34.9978 255.967C35.1818 255.782 35.4314 255.679 35.6917 255.679H36.6731V253.716C36.6767 250.764 37.7877 247.92 39.7865 245.747C41.7854 243.575 44.5266 242.231 47.4685 241.981V239.977H45.5057C45.2454 239.977 44.9958 239.873 44.8117 239.689C44.6277 239.505 44.5243 239.256 44.5243 238.995C44.5243 238.735 44.6277 238.485 44.8117 238.301C44.9958 238.117 45.2454 238.014 45.5057 238.014H51.394C51.6543 238.014 51.9039 238.117 52.088 238.301C52.272 238.485 52.3754 238.735 52.3754 238.995C52.3754 239.256 52.272 239.505 52.088 239.689C51.9039 239.873 51.6543 239.977 51.394 239.977H49.4312V241.981C52.3731 242.231 55.1143 243.575 57.1132 245.747C59.112 247.92 60.223 250.764 60.2266 253.716V255.679H61.208C61.4683 255.679 61.7179 255.782 61.9019 255.967C62.086 256.151 62.1894 256.4 62.1894 256.66C62.1894 256.921 62.086 257.17 61.9019 257.354C61.7179 257.538 61.4683 257.642 61.208 257.642H35.6917C35.4314 257.642 35.1818 257.538 34.9978 257.354C34.8137 257.17 34.7103 256.921 34.7103 256.66ZM61.208 259.605H35.6917C35.4314 259.605 35.1818 259.708 34.9978 259.892C34.8137 260.076 34.7103 260.326 34.7103 260.586C34.7103 260.846 34.8137 261.096 34.9978 261.28C35.1818 261.464 35.4314 261.567 35.6917 261.567H61.208C61.4683 261.567 61.7179 261.464 61.9019 261.28C62.086 261.096 62.1894 260.846 62.1894 260.586C62.1894 260.326 62.086 260.076 61.9019 259.892C61.7179 259.708 61.4683 259.605 61.208 259.605Z" fill="#E5C8A1"/>
<path fill-rule="evenodd" clip-rule="evenodd" d="M60.4981 46.5539C64.2138 37.625 62.7562 26.9676 55.8693 19.2872C46.3177 8.63514 29.9393 7.74305 19.2873 17.2947C8.6352 26.8463 7.74312 43.2246 17.2947 53.8767C25.0564 62.5325 37.3257 64.7437 47.3673 60.1434L64.8728 64.4943L60.4981 46.5539Z" fill="#FFEFDB"/>
<path d="M60.4981 46.5539L58.2558 45.6208L57.95 46.3558L58.1386 47.1292L60.4981 46.5539ZM47.3673 60.1434L47.9532 57.7864L47.1284 57.5814L46.3558 57.9354L47.3673 60.1434ZM64.8728 64.4943L64.2869 66.8513L68.1835 67.8198L67.2323 63.919L64.8728 64.4943ZM54.0611 20.9086C60.3 27.8662 61.6256 37.5232 58.2558 45.6208L62.7404 47.487C66.8019 37.7268 65.2125 26.069 57.6775 17.6658L54.0611 20.9086ZM20.9087 19.1029C30.5621 10.4467 45.4049 11.2551 54.0611 20.9086L57.6775 17.6658C47.2304 6.01512 29.3166 5.03941 17.6659 15.4865L20.9087 19.1029ZM19.1029 52.2553C10.4468 42.6019 11.2552 27.759 20.9087 19.1029L17.6659 15.4865C6.01519 25.9336 5.03947 43.8474 15.4866 55.4981L19.1029 52.2553ZM46.3558 57.9354C37.2536 62.1054 26.1344 60.0969 19.1029 52.2553L15.4866 55.4981C23.9783 64.9681 37.3979 67.382 48.3789 62.3514L46.3558 57.9354ZM65.4586 62.1374L47.9532 57.7864L46.7815 62.5003L64.2869 66.8513L65.4586 62.1374ZM58.1386 47.1292L62.5132 65.0697L67.2323 63.919L62.8576 45.9785L58.1386 47.1292Z" fill="#E5C8A1"/>
<path d="M49.7249 48.2301C49.7249 48.5393 49.6021 48.8358 49.3835 49.0544C49.1648 49.2731 48.8683 49.3959 48.5591 49.3959H22.9125C22.6033 49.3959 22.3068 49.2731 22.0881 49.0544C21.8695 48.8358 21.7467 48.5393 21.7467 48.2301C21.7467 47.9209 21.8695 47.6244 22.0881 47.4058C22.3068 47.1872 22.6033 47.0644 22.9125 47.0644H48.5591C48.8683 47.0644 49.1648 47.1872 49.3835 47.4058C49.6021 47.6244 49.7249 47.9209 49.7249 48.2301ZM39.2331 44.7328H45.0619C45.6802 44.7328 46.2733 44.4872 46.7105 44.05C47.1477 43.6127 47.3934 43.0197 47.3934 42.4013V28.4122C47.3934 27.7939 47.1477 27.2008 46.7105 26.7636C46.2733 26.3264 45.6802 26.0807 45.0619 26.0807H39.2331C38.6147 26.0807 38.0217 26.3264 37.5844 26.7636C37.1472 27.2008 36.9016 27.7939 36.9016 28.4122V42.4013C36.9016 43.0197 37.1472 43.6127 37.5844 44.05C38.0217 44.4872 38.6147 44.7328 39.2331 44.7328ZM26.4097 44.7328H32.2385C32.8569 44.7328 33.4499 44.4872 33.8872 44.05C34.3244 43.6127 34.57 43.0197 34.57 42.4013V22.5834C34.57 21.9651 34.3244 21.3721 33.8872 20.9348C33.4499 20.4976 32.8569 20.2519 32.2385 20.2519H26.4097C25.7914 20.2519 25.1983 20.4976 24.7611 20.9348C24.3239 21.3721 24.0782 21.9651 24.0782 22.5834V42.4013C24.0782 43.0197 24.3239 43.6127 24.7611 44.05C25.1983 44.4872 25.7914 44.7328 26.4097 44.7328Z" fill="#E5C8A1"/>
</svg>
