<svg width="18" height="21" viewBox="0 0 18 21" fill="none" xmlns="http://www.w3.org/2000/svg">
<path d="M17.0115 5.94588L11.4156 0.181176C11.3033 0.0653121 11.1509 0.000144161 10.9919 0H1.39897C1.02794 0 0.672108 0.151838 0.40975 0.422111C0.147391 0.692384 0 1.05895 0 1.44118V19.5588C0 19.941 0.147391 20.3076 0.40975 20.5779C0.672108 20.8482 1.02794 21 1.39897 21H15.7884C16.1594 21 16.5153 20.8482 16.7776 20.5779C17.04 20.3076 17.1874 19.941 17.1874 19.5588V6.38235C17.1872 6.2186 17.124 6.0616 17.0115 5.94588ZM11.5915 2.10824L15.1409 5.76471H11.5915V2.10824ZM15.7884 19.7647H1.39897C1.34597 19.7647 1.29514 19.743 1.25766 19.7044C1.22018 19.6658 1.19912 19.6134 1.19912 19.5588V1.44118C1.19912 1.38657 1.22018 1.33421 1.25766 1.2956C1.29514 1.25699 1.34597 1.23529 1.39897 1.23529H10.3924V6.38235C10.3924 6.54616 10.4555 6.70326 10.568 6.8191C10.6804 6.93493 10.8329 7 10.9919 7H15.9883V19.5588C15.9883 19.6134 15.9672 19.6658 15.9297 19.7044C15.8922 19.743 15.8414 19.7647 15.7884 19.7647ZM11.4156 11.7106C11.4745 11.7671 11.5218 11.8353 11.5545 11.9111C11.5873 11.9868 11.6049 12.0686 11.6064 12.1516C11.6078 12.2345 11.593 12.3169 11.5628 12.3938C11.5327 12.4707 11.4878 12.5406 11.4308 12.5992C11.3739 12.6579 11.3061 12.7041 11.2314 12.7352C11.1568 12.7662 11.0768 12.7815 10.9963 12.78C10.9158 12.7786 10.8364 12.7604 10.7629 12.7266C10.6893 12.6929 10.6231 12.6442 10.5682 12.5835L9.19325 11.1681V16.2647C9.19325 16.4285 9.13008 16.5856 9.01764 16.7014C8.90521 16.8173 8.75271 16.8824 8.59369 16.8824C8.43468 16.8824 8.28218 16.8173 8.16974 16.7014C8.0573 16.5856 7.99413 16.4285 7.99413 16.2647V11.1681L6.61914 12.5835C6.50548 12.6926 6.35516 12.752 6.19983 12.7492C6.0445 12.7464 5.89631 12.6816 5.78646 12.5684C5.67661 12.4552 5.61368 12.3026 5.61094 12.1425C5.6082 11.9825 5.66586 11.8277 5.77176 11.7106L8.17 9.24C8.28242 9.12434 8.43481 9.05937 8.59369 9.05937C8.75258 9.05937 8.90496 9.12434 9.01738 9.24L11.4156 11.7106Z" fill="black"/>
</svg>
