<svg width="27" height="23" viewBox="0 0 27 23" fill="none" xmlns="http://www.w3.org/2000/svg">
<path d="M24.7338 0.0834961H2.73376C2.20333 0.0834961 1.69462 0.29421 1.31955 0.669282C0.944478 1.04436 0.733765 1.55306 0.733765 2.0835V20.0835C0.733765 20.6139 0.944478 21.1226 1.31955 21.4977C1.69462 21.8728 2.20333 22.0835 2.73376 22.0835H24.7338C25.2642 22.0835 25.7729 21.8728 26.148 21.4977C26.5231 21.1226 26.7338 20.6139 26.7338 20.0835V2.0835C26.7338 1.55306 26.5231 1.04436 26.148 0.669282C25.7729 0.29421 25.2642 0.0834961 24.7338 0.0834961ZM24.7338 2.0835V14.9272L21.475 11.6697C21.2893 11.484 21.0688 11.3366 20.8261 11.2361C20.5834 11.1355 20.3233 11.0838 20.0606 11.0838C19.798 11.0838 19.5378 11.1355 19.2952 11.2361C19.0525 11.3366 18.832 11.484 18.6463 11.6697L16.1463 14.1697L10.6463 8.66975C10.2712 8.29496 9.76272 8.08442 9.23251 8.08442C8.70231 8.08442 8.1938 8.29496 7.81876 8.66975L2.73376 13.7547V2.0835H24.7338ZM2.73376 16.5835L9.23376 10.0835L19.2338 20.0835H2.73376V16.5835ZM24.7338 20.0835H22.0625L17.5625 15.5835L20.0625 13.0835L24.7338 17.756V20.0835ZM15.7338 7.5835C15.7338 7.28682 15.8217 6.99681 15.9866 6.75014C16.1514 6.50347 16.3857 6.31121 16.6597 6.19768C16.9338 6.08415 17.2354 6.05444 17.5264 6.11232C17.8174 6.1702 18.0846 6.31306 18.2944 6.52284C18.5042 6.73261 18.6471 6.99989 18.7049 7.29086C18.7628 7.58183 18.7331 7.88343 18.6196 8.15752C18.5061 8.43161 18.3138 8.66588 18.0671 8.8307C17.8204 8.99552 17.5304 9.0835 17.2338 9.0835C16.8359 9.0835 16.4544 8.92546 16.1731 8.64416C15.8918 8.36285 15.7338 7.98132 15.7338 7.5835Z" fill="black"/>
</svg>
