<svg width="207" height="109" viewBox="0 0 207 109" fill="none" xmlns="http://www.w3.org/2000/svg">
<path d="M138 37.8008V57.9602C138 59.2968 137.473 60.5787 136.536 61.5239C135.598 62.469 134.326 63 133 63H73C71.6739 63 70.4021 62.469 69.4645 61.5239C68.5268 60.5787 68 59.2968 68 57.9602V37.8008C68 36.4641 68.5268 35.1822 69.4645 34.2371C70.4021 33.2919 71.6739 32.761 73 32.761H88C88.663 32.761 89.2989 33.0264 89.7678 33.499C90.2366 33.9716 90.5 34.6125 90.5 35.2809C90.5 35.9492 90.2366 36.5902 89.7678 37.0627C89.2989 37.5353 88.663 37.8008 88 37.8008H73V57.9602H133V37.8008H118C117.337 37.8008 116.701 37.5353 116.232 37.0627C115.763 36.5902 115.5 35.9492 115.5 35.2809C115.5 34.6125 115.763 33.9716 116.232 33.499C116.701 33.0264 117.337 32.761 118 32.761H133C134.326 32.761 135.598 33.2919 136.536 34.2371C137.473 35.1822 138 36.4641 138 37.8008ZM89.7688 19.4243L100.5 8.60436V35.2809C100.5 35.9492 100.763 36.5902 101.232 37.0627C101.701 37.5353 102.337 37.8008 103 37.8008C103.663 37.8008 104.299 37.5353 104.768 37.0627C105.237 36.5902 105.5 35.9492 105.5 35.2809V8.60436L116.231 19.4243C116.7 19.8971 117.337 20.1627 118 20.1627C118.663 20.1627 119.3 19.8971 119.769 19.4243C120.238 18.9514 120.501 18.3101 120.501 17.6414C120.501 16.9727 120.238 16.3314 119.769 15.8586L104.769 0.739059C104.537 0.504766 104.261 0.318899 103.957 0.192086C103.654 0.0652723 103.329 0 103 0C102.671 0 102.346 0.0652723 102.043 0.192086C101.739 0.318899 101.463 0.504766 101.231 0.739059L86.2312 15.8586C85.7621 16.3314 85.4986 16.9727 85.4986 17.6414C85.4986 18.3101 85.7622 18.9514 86.2313 19.4243C86.7004 19.8971 87.3366 20.1627 88 20.1627C88.6634 20.1627 89.2997 19.8971 89.7688 19.4243ZM125.5 47.8805C125.5 47.1329 125.28 46.4021 124.868 45.7805C124.456 45.1589 123.87 44.6744 123.185 44.3883C122.5 44.1022 121.746 44.0274 121.018 44.1732C120.291 44.3191 119.623 44.6791 119.098 45.2077C118.574 45.7363 118.217 46.4098 118.072 47.1431C117.927 47.8763 118.002 48.6363 118.285 49.327C118.569 50.0177 119.05 50.608 119.667 51.0233C120.283 51.4387 121.008 51.6604 121.75 51.6604C122.745 51.6604 123.698 51.2621 124.402 50.5533C125.105 49.8444 125.5 48.883 125.5 47.8805Z" fill="#293352"/>
<path d="M0.530806 102V80.1818H14.2098V83.0156H3.82271V89.6634H13.496V92.4865H3.82271V99.1662H14.3376V102H0.530806ZM21.5367 92.2841V102H18.3513V85.6364H21.4088V88.2997H21.6112C21.9877 87.4332 22.5771 86.7372 23.3797 86.2116C24.1894 85.6861 25.2085 85.4233 26.4372 85.4233C27.5523 85.4233 28.5289 85.6577 29.3669 86.1264C30.205 86.5881 30.8548 87.277 31.3165 88.1932C31.7781 89.1094 32.009 90.2422 32.009 91.5916V102H28.8236V91.9751C28.8236 90.7891 28.5146 89.8622 27.8968 89.1946C27.2789 88.5199 26.4301 88.1825 25.3506 88.1825C24.6119 88.1825 23.955 88.3423 23.3797 88.6619C22.8115 88.9815 22.3605 89.4503 22.0267 90.0682C21.7 90.679 21.5367 91.4176 21.5367 92.2841ZM49.6936 85.6364L43.7597 102H40.3506L34.406 85.6364H37.8257L41.9699 98.2287H42.1404L46.2739 85.6364H49.6936ZM52.6872 102V85.6364H55.8726V102H52.6872ZM54.2959 83.1115C53.7419 83.1115 53.2661 82.9268 52.8683 82.5575C52.4777 82.1811 52.2824 81.7337 52.2824 81.2152C52.2824 80.6896 52.4777 80.2422 52.8683 79.8729C53.2661 79.4964 53.7419 79.3082 54.2959 79.3082C54.8499 79.3082 55.3222 79.4964 55.7128 79.8729C56.1105 80.2422 56.3094 80.6896 56.3094 81.2152C56.3094 81.7337 56.1105 82.1811 55.7128 82.5575C55.3222 82.9268 54.8499 83.1115 54.2959 83.1115ZM64.92 102.362C63.8831 102.362 62.9456 102.17 62.1075 101.787C61.2694 101.396 60.6054 100.832 60.1153 100.093C59.6324 99.3544 59.3909 98.4489 59.3909 97.3764C59.3909 96.4531 59.5684 95.6932 59.9236 95.0966C60.2787 94.5 60.7581 94.0277 61.3618 93.6797C61.9655 93.3317 62.6402 93.0689 63.3859 92.8913C64.1317 92.7138 64.8916 92.5788 65.6657 92.4865C66.6459 92.3729 67.4413 92.2805 68.0521 92.2095C68.6629 92.1314 69.1068 92.0071 69.3838 91.8366C69.6608 91.6662 69.7993 91.3892 69.7993 91.0057V90.9311C69.7993 90.0007 69.5365 89.2798 69.0109 88.7685C68.4925 88.2571 67.7183 88.0014 66.6885 88.0014C65.616 88.0014 64.7709 88.2393 64.153 88.7152C63.5422 89.1839 63.1196 89.706 62.8852 90.2812L59.8916 89.5994C60.2467 88.6051 60.7652 87.8026 61.447 87.1918C62.1359 86.5739 62.9278 86.1264 63.8227 85.8494C64.7176 85.5653 65.6586 85.4233 66.6459 85.4233C67.2993 85.4233 67.9917 85.5014 68.7233 85.6577C69.4619 85.8068 70.1508 86.0838 70.79 86.4886C71.4363 86.8935 71.9655 87.4723 72.3774 88.2251C72.7893 88.9709 72.9953 89.9403 72.9953 91.1335V102H69.8845V99.7628H69.7567C69.5507 100.175 69.2417 100.58 68.8298 100.977C68.4179 101.375 67.8888 101.705 67.2425 101.968C66.5961 102.231 65.822 102.362 64.92 102.362ZM65.6125 99.8054C66.4932 99.8054 67.246 99.6314 67.871 99.2834C68.5031 98.9354 68.9825 98.4808 69.3092 97.9197C69.643 97.3516 69.8099 96.7443 69.8099 96.098V93.9886C69.6963 94.1023 69.4761 94.2088 69.1494 94.3082C68.8298 94.4006 68.464 94.4822 68.0521 94.5533C67.6402 94.6172 67.2389 94.6776 66.8483 94.7344C66.4577 94.7841 66.1309 94.8267 65.8682 94.8622C65.2503 94.9403 64.6856 95.0717 64.1743 95.2564C63.67 95.4411 63.2652 95.7074 62.9598 96.0554C62.6615 96.3963 62.5123 96.8509 62.5123 97.419C62.5123 98.2074 62.8035 98.804 63.3859 99.2088C63.9683 99.6065 64.7105 99.8054 65.6125 99.8054ZM77.238 102V85.6364H80.3169V88.2358H80.4873C80.7856 87.3551 81.3112 86.6626 82.064 86.1584C82.824 85.647 83.6833 85.3913 84.6421 85.3913C84.841 85.3913 85.0754 85.3984 85.3453 85.4126C85.6222 85.4268 85.8389 85.4446 85.9951 85.4659V88.5128C85.8673 88.4773 85.64 88.4382 85.3133 88.3956C84.9866 88.3459 84.6599 88.321 84.3332 88.321C83.5803 88.321 82.9092 88.4808 82.3197 88.8004C81.7373 89.1129 81.2757 89.5497 80.9347 90.1108C80.5938 90.6648 80.4234 91.2969 80.4234 92.0071V102H77.238ZM100.239 80.1818V102H96.9468V80.1818H100.239ZM104.777 102V85.6364H107.835V88.2997H108.037C108.378 87.3977 108.935 86.6946 109.71 86.1903C110.484 85.679 111.411 85.4233 112.49 85.4233C113.584 85.4233 114.5 85.679 115.239 86.1903C115.984 86.7017 116.535 87.4048 116.89 88.2997H117.06C117.451 87.4261 118.073 86.7301 118.925 86.2116C119.777 85.6861 120.793 85.4233 121.972 85.4233C123.456 85.4233 124.667 85.8885 125.604 86.8189C126.549 87.7493 127.021 89.152 127.021 91.027V102H123.836V91.3253C123.836 90.2173 123.534 89.4148 122.93 88.9176C122.327 88.4205 121.606 88.1719 120.768 88.1719C119.731 88.1719 118.925 88.4915 118.35 89.1307C117.774 89.7628 117.487 90.576 117.487 91.5703V102H114.312V91.1229C114.312 90.2351 114.035 89.5213 113.481 88.9815C112.927 88.4418 112.206 88.1719 111.318 88.1719C110.715 88.1719 110.157 88.3317 109.646 88.6513C109.141 88.9638 108.733 89.4006 108.421 89.9616C108.115 90.5227 107.962 91.1726 107.962 91.9112V102H104.777ZM136.053 102.362C135.016 102.362 134.078 102.17 133.24 101.787C132.402 101.396 131.738 100.832 131.248 100.093C130.765 99.3544 130.524 98.4489 130.524 97.3764C130.524 96.4531 130.701 95.6932 131.056 95.0966C131.411 94.5 131.891 94.0277 132.495 93.6797C133.098 93.3317 133.773 93.0689 134.519 92.8913C135.264 92.7138 136.024 92.5788 136.799 92.4865C137.779 92.3729 138.574 92.2805 139.185 92.2095C139.796 92.1314 140.24 92.0071 140.517 91.8366C140.794 91.6662 140.932 91.3892 140.932 91.0057V90.9311C140.932 90.0007 140.669 89.2798 140.144 88.7685C139.625 88.2571 138.851 88.0014 137.821 88.0014C136.749 88.0014 135.904 88.2393 135.286 88.7152C134.675 89.1839 134.252 89.706 134.018 90.2812L131.024 89.5994C131.38 88.6051 131.898 87.8026 132.58 87.1918C133.269 86.5739 134.061 86.1264 134.956 85.8494C135.85 85.5653 136.791 85.4233 137.779 85.4233C138.432 85.4233 139.125 85.5014 139.856 85.6577C140.595 85.8068 141.284 86.0838 141.923 86.4886C142.569 86.8935 143.098 87.4723 143.51 88.2251C143.922 88.9709 144.128 89.9403 144.128 91.1335V102H141.017V99.7628H140.889C140.684 100.175 140.375 100.58 139.963 100.977C139.551 101.375 139.022 101.705 138.375 101.968C137.729 102.231 136.955 102.362 136.053 102.362ZM136.745 99.8054C137.626 99.8054 138.379 99.6314 139.004 99.2834C139.636 98.9354 140.115 98.4808 140.442 97.9197C140.776 97.3516 140.943 96.7443 140.943 96.098V93.9886C140.829 94.1023 140.609 94.2088 140.282 94.3082C139.963 94.4006 139.597 94.4822 139.185 94.5533C138.773 94.6172 138.372 94.6776 137.981 94.7344C137.59 94.7841 137.264 94.8267 137.001 94.8622C136.383 94.9403 135.818 95.0717 135.307 95.2564C134.803 95.4411 134.398 95.7074 134.093 96.0554C133.794 96.3963 133.645 96.8509 133.645 97.419C133.645 98.2074 133.936 98.804 134.519 99.2088C135.101 99.6065 135.843 99.8054 136.745 99.8054ZM155.232 108.477C153.932 108.477 152.813 108.307 151.876 107.966C150.945 107.625 150.185 107.174 149.596 106.613C149.006 106.052 148.566 105.438 148.275 104.77L151.013 103.641C151.205 103.953 151.46 104.283 151.78 104.631C152.107 104.987 152.547 105.288 153.101 105.537C153.662 105.786 154.383 105.91 155.264 105.91C156.471 105.91 157.469 105.615 158.257 105.026C159.046 104.443 159.44 103.513 159.44 102.234V99.017H159.237C159.046 99.3651 158.769 99.7521 158.406 100.178C158.051 100.604 157.561 100.974 156.936 101.286C156.311 101.599 155.498 101.755 154.497 101.755C153.204 101.755 152.039 101.453 151.002 100.849C149.972 100.239 149.156 99.3402 148.552 98.1541C147.955 96.9609 147.657 95.4943 147.657 93.7543C147.657 92.0142 147.952 90.5227 148.541 89.2798C149.138 88.0369 149.955 87.0852 150.992 86.4247C152.028 85.7571 153.204 85.4233 154.518 85.4233C155.533 85.4233 156.354 85.5938 156.979 85.9347C157.604 86.2685 158.09 86.6591 158.438 87.1065C158.793 87.554 159.067 87.9482 159.259 88.2891H159.493V85.6364H162.614V102.362C162.614 103.768 162.288 104.923 161.634 105.825C160.981 106.727 160.097 107.394 158.982 107.827C157.874 108.261 156.624 108.477 155.232 108.477ZM155.2 99.1129C156.116 99.1129 156.89 98.8999 157.522 98.4737C158.161 98.0405 158.644 97.4226 158.971 96.62C159.305 95.8104 159.472 94.8409 159.472 93.7116C159.472 92.6108 159.308 91.6413 158.982 90.8033C158.655 89.9652 158.176 89.3118 157.543 88.843C156.911 88.3672 156.13 88.1293 155.2 88.1293C154.241 88.1293 153.442 88.3778 152.803 88.875C152.163 89.3651 151.68 90.0327 151.354 90.8778C151.034 91.723 150.874 92.6676 150.874 93.7116C150.874 94.7841 151.038 95.7251 151.364 96.5348C151.691 97.3445 152.174 97.9766 152.813 98.4311C153.46 98.8857 154.255 99.1129 155.2 99.1129ZM173.939 102.33C172.327 102.33 170.938 101.986 169.774 101.297C168.616 100.601 167.721 99.6243 167.089 98.3672C166.464 97.103 166.151 95.6222 166.151 93.9247C166.151 92.2486 166.464 90.7713 167.089 89.4929C167.721 88.2145 168.602 87.2166 169.731 86.4993C170.867 85.782 172.195 85.4233 173.715 85.4233C174.639 85.4233 175.533 85.576 176.4 85.8814C177.266 86.1868 178.044 86.6662 178.733 87.3196C179.422 87.973 179.965 88.8217 180.363 89.8658C180.761 90.9027 180.96 92.1634 180.96 93.6477V94.777H167.952V92.3906H177.838C177.838 91.5526 177.668 90.8104 177.327 90.1641C176.986 89.5107 176.506 88.9957 175.889 88.6193C175.278 88.2429 174.56 88.0547 173.737 88.0547C172.842 88.0547 172.06 88.2749 171.393 88.7152C170.732 89.1484 170.221 89.7166 169.859 90.4197C169.504 91.1158 169.326 91.8722 169.326 92.6889V94.5533C169.326 95.647 169.518 96.5774 169.901 97.3445C170.292 98.1115 170.835 98.6974 171.531 99.1023C172.227 99.5 173.041 99.6989 173.971 99.6989C174.575 99.6989 175.125 99.6136 175.622 99.4432C176.119 99.2656 176.549 99.0028 176.911 98.6548C177.274 98.3068 177.551 97.8771 177.742 97.3658L180.757 97.9091C180.516 98.7969 180.082 99.5746 179.457 100.242C178.84 100.903 178.062 101.418 177.124 101.787C176.194 102.149 175.132 102.33 173.939 102.33ZM184.494 102V85.6364H187.551V88.2997H187.754C188.095 87.3977 188.652 86.6946 189.426 86.1903C190.201 85.679 191.127 85.4233 192.207 85.4233C193.301 85.4233 194.217 85.679 194.956 86.1903C195.701 86.7017 196.252 87.4048 196.607 88.2997H196.777C197.168 87.4261 197.789 86.7301 198.642 86.2116C199.494 85.6861 200.509 85.4233 201.688 85.4233C203.173 85.4233 204.384 85.8885 205.321 86.8189C206.266 87.7493 206.738 89.152 206.738 91.027V102H203.553V91.3253C203.553 90.2173 203.251 89.4148 202.647 88.9176C202.044 88.4205 201.323 88.1719 200.485 88.1719C199.448 88.1719 198.642 88.4915 198.066 89.1307C197.491 89.7628 197.203 90.576 197.203 91.5703V102H194.029V91.1229C194.029 90.2351 193.752 89.5213 193.198 88.9815C192.644 88.4418 191.923 88.1719 191.035 88.1719C190.431 88.1719 189.874 88.3317 189.362 88.6513C188.858 88.9638 188.45 89.4006 188.137 89.9616C187.832 90.5227 187.679 91.1726 187.679 91.9112V102H184.494Z" fill="#293352"/>
</svg>
