<svg width="25" height="23" viewBox="0 0 25 23" fill="none" xmlns="http://www.w3.org/2000/svg">
<path d="M23.6079 0.372314H1.60791C1.34269 0.372314 1.08834 0.477671 0.900804 0.665208C0.713267 0.852744 0.60791 1.1071 0.60791 1.37231V20.3723C0.60791 20.9027 0.818624 21.4115 1.1937 21.7865C1.56877 22.1616 2.07748 22.3723 2.60791 22.3723H7.60791C8.13834 22.3723 8.64705 22.1616 9.02212 21.7865C9.3972 21.4115 9.60791 20.9027 9.60791 20.3723V14.3723H15.6079V16.3723C15.6079 16.9027 15.8186 17.4115 16.1937 17.7865C16.5688 18.1616 17.0775 18.3723 17.6079 18.3723H22.6079C23.1383 18.3723 23.6471 18.1616 24.0221 17.7865C24.3972 17.4115 24.6079 16.9027 24.6079 16.3723V1.37231C24.6079 1.1071 24.5026 0.852744 24.315 0.665208C24.1275 0.477671 23.8731 0.372314 23.6079 0.372314ZM7.60791 20.3723H2.60791V10.3723H7.60791V20.3723ZM7.60791 8.37231H2.60791V2.37231H7.60791V8.37231ZM15.6079 12.3723H9.60791V2.37231H15.6079V12.3723ZM22.6079 16.3723H17.6079V10.3723H22.6079V16.3723ZM22.6079 8.37231H17.6079V2.37231H22.6079V8.37231Z" fill="black"/>
</svg>
