<svg viewBox="0 0 48 48" xmlns="http://www.w3.org/2000/svg" fill="#000000"><g id="SVGRepo_bgCarrier" stroke-width="0"></g><g id="SVGRepo_tracerCarrier" stroke-linecap="round" stroke-linejoin="round" stroke="#CCCCCC" stroke-width="1.9200000000000004"><defs><style>.a{fill:none;stroke:#293352;stroke-linecap:round;stroke-linejoin:round;}</style></defs><rect class="a" x="5.5" y="26" width="16.5" height="16.5" rx="2"></rect><line class="a" x1="5.5" y1="39.9633" x2="22" y2="39.9633"></line><rect class="a" x="5.5" y="5.5" width="16.5" height="16.5" rx="2"></rect><line class="a" x1="5.5" y1="19.4633" x2="22" y2="19.4633"></line><rect class="a" x="5.5" y="26" width="16.5" height="16.5" rx="2"></rect><line class="a" x1="5.5" y1="39.9633" x2="22" y2="39.9633"></line><rect class="a" x="5.5" y="5.5" width="16.5" height="16.5" rx="2"></rect><line class="a" x1="5.5" y1="19.4633" x2="22" y2="19.4633"></line><rect class="a" x="26" y="5.5" width="16.5" height="16.5" rx="2"></rect><line class="a" x1="26" y1="19.4633" x2="42.5" y2="19.4633"></line></g><g id="SVGRepo_iconCarrier"><defs><style>.a{fill:none;stroke:#293352;stroke-linecap:round;stroke-linejoin:round;}</style></defs><rect class="a" x="5.5" y="26" width="16.5" height="16.5" rx="2"></rect><line class="a" x1="5.5" y1="39.9633" x2="22" y2="39.9633"></line><rect class="a" x="5.5" y="5.5" width="16.5" height="16.5" rx="2"></rect><line class="a" x1="5.5" y1="19.4633" x2="22" y2="19.4633"></line><rect class="a" x="5.5" y="26" width="16.5" height="16.5" rx="2"></rect><line class="a" x1="5.5" y1="39.9633" x2="22" y2="39.9633"></line><rect class="a" x="5.5" y="5.5" width="16.5" height="16.5" rx="2"></rect><line class="a" x1="5.5" y1="19.4633" x2="22" y2="19.4633"></line><rect class="a" x="26" y="5.5" width="16.5" height="16.5" rx="2"></rect><line class="a" x1="26" y1="19.4633" x2="42.5" y2="19.4633"></line></g></svg>