<svg width="40" height="30" viewBox="0 0 40 30" fill="none" xmlns="http://www.w3.org/2000/svg">
<path d="M40 15C40 15.442 39.8244 15.866 39.5118 16.1785C39.1993 16.4911 38.7754 16.6667 38.3333 16.6667H1.66667C1.22464 16.6667 0.800716 16.4911 0.488156 16.1785C0.175595 15.866 0 15.442 0 15C0 14.558 0.175595 14.134 0.488156 13.8215C0.800716 13.5089 1.22464 13.3333 1.66667 13.3333H38.3333C38.7754 13.3333 39.1993 13.5089 39.5118 13.8215C39.8244 14.134 40 14.558 40 15ZM1.66667 3.33333H38.3333C38.7754 3.33333 39.1993 3.15774 39.5118 2.84518C39.8244 2.53262 40 2.10869 40 1.66667C40 1.22464 39.8244 0.800716 39.5118 0.488156C39.1993 0.175595 38.7754 0 38.3333 0H1.66667C1.22464 0 0.800716 0.175595 0.488156 0.488156C0.175595 0.800716 0 1.22464 0 1.66667C0 2.10869 0.175595 2.53262 0.488156 2.84518C0.800716 3.15774 1.22464 3.33333 1.66667 3.33333ZM38.3333 26.6667H1.66667C1.22464 26.6667 0.800716 26.8423 0.488156 27.1548C0.175595 27.4674 0 27.8913 0 28.3333C0 28.7754 0.175595 29.1993 0.488156 29.5118C0.800716 29.8244 1.22464 30 1.66667 30H38.3333C38.7754 30 39.1993 29.8244 39.5118 29.5118C39.8244 29.1993 40 28.7754 40 28.3333C40 27.8913 39.8244 27.4674 39.5118 27.1548C39.1993 26.8423 38.7754 26.6667 38.3333 26.6667Z" fill="#FA5C4F"/>
</svg>
