<svg width="26" height="24" viewBox="0 0 26 24" fill="none" xmlns="http://www.w3.org/2000/svg">
<path d="M23.8615 0H1.98846C1.46109 0 0.955316 0.21988 0.582407 0.611269C0.209498 1.00266 0 1.5335 0 2.087V22.9571C9.04654e-05 23.1349 0.0434908 23.3098 0.126081 23.4651C0.20867 23.6204 0.327708 23.7509 0.471894 23.8444C0.616079 23.9378 0.780626 23.991 0.949913 23.999C1.1192 24.0069 1.28761 23.9693 1.43915 23.8897L4.97115 22.0362L8.50316 23.8897C8.64129 23.9622 8.79362 24 8.94808 24C9.10253 24 9.25487 23.9622 9.393 23.8897L12.925 22.0362L16.457 23.8897C16.5951 23.9622 16.7475 24 16.9019 24C17.0564 24 17.2087 23.9622 17.3468 23.8897L20.8788 22.0362L24.4109 23.8897C24.5624 23.9693 24.7308 24.0069 24.9001 23.999C25.0694 23.991 25.2339 23.9378 25.3781 23.8444C25.5223 23.7509 25.6413 23.6204 25.7239 23.4651C25.8065 23.3098 25.8499 23.1349 25.85 22.9571V2.087C25.85 1.5335 25.6405 1.00266 25.2676 0.611269C24.8947 0.21988 24.3889 0 23.8615 0ZM23.8615 21.2692L21.3238 19.9361C21.1856 19.8636 21.0333 19.8258 20.8788 19.8258C20.7244 19.8258 20.5721 19.8636 20.4339 19.9361L16.9019 21.7909L13.3699 19.9361C13.2318 19.8636 13.0795 19.8258 12.925 19.8258C12.7705 19.8258 12.6182 19.8636 12.4801 19.9361L8.94808 21.7909L5.41607 19.9361C5.27794 19.8636 5.12561 19.8258 4.97115 19.8258C4.8167 19.8258 4.66436 19.8636 4.52624 19.9361L1.98846 21.2692V2.087H23.8615V21.2692ZM13.9192 9.39152C13.9192 9.11477 14.024 8.84935 14.2104 8.65365C14.3969 8.45796 14.6498 8.34802 14.9135 8.34802H20.8788C21.1425 8.34802 21.3954 8.45796 21.5819 8.65365C21.7683 8.84935 21.8731 9.11477 21.8731 9.39152C21.8731 9.66828 21.7683 9.93369 21.5819 10.1294C21.3954 10.3251 21.1425 10.435 20.8788 10.435H14.9135C14.6498 10.435 14.3969 10.3251 14.2104 10.1294C14.024 9.93369 13.9192 9.66828 13.9192 9.39152ZM13.9192 13.5655C13.9192 13.2888 14.024 13.0234 14.2104 12.8277C14.3969 12.632 14.6498 12.522 14.9135 12.522H20.8788C21.1425 12.522 21.3954 12.632 21.5819 12.8277C21.7683 13.0234 21.8731 13.2888 21.8731 13.5655C21.8731 13.8423 21.7683 14.1077 21.5819 14.3034C21.3954 14.4991 21.1425 14.609 20.8788 14.609H14.9135C14.6498 14.609 14.3969 14.4991 14.2104 14.3034C14.024 14.1077 13.9192 13.8423 13.9192 13.5655ZM4.97115 16.696H10.9365C11.2002 16.696 11.4531 16.5861 11.6396 16.3904C11.826 16.1947 11.9308 15.9293 11.9308 15.6525V7.30452C11.9308 7.02776 11.826 6.76234 11.6396 6.56665C11.4531 6.37096 11.2002 6.26101 10.9365 6.26101H4.97115C4.70747 6.26101 4.45458 6.37096 4.26813 6.56665C4.08167 6.76234 3.97692 7.02776 3.97692 7.30452V15.6525C3.97692 15.9293 4.08167 16.1947 4.26813 16.3904C4.45458 16.5861 4.70747 16.696 4.97115 16.696ZM5.96538 8.34802H9.94231V14.609H5.96538V8.34802Z" fill="#1464FF"/>
</svg>
