<svg width="17" height="32" viewBox="0 0 17 32" fill="none" xmlns="http://www.w3.org/2000/svg">
<path d="M16.5846 16.5846L2.41948 30.7496C2.28787 30.8813 2.13163 30.9856 1.95967 31.0569C1.78772 31.1281 1.60342 31.1648 1.4173 31.1648C1.23117 31.1648 1.04687 31.1281 0.87492 31.0569C0.702966 30.9856 0.546724 30.8813 0.415116 30.7496C0.283507 30.618 0.17911 30.4618 0.107885 30.2898C0.0366588 30.1179 0 29.9336 0 29.7475C0 29.5613 0.0366588 29.377 0.107885 29.2051C0.17911 29.0331 0.283507 28.8769 0.415116 28.7453L13.5798 15.5824L0.415116 2.41948C0.149321 2.15368 -2.8006e-09 1.79319 0 1.4173C2.8006e-09 1.04141 0.149321 0.680911 0.415116 0.415116C0.68091 0.149322 1.04141 2.8006e-09 1.4173 0C1.79319 -2.8006e-09 2.15368 0.149322 2.41948 0.415116L16.5846 14.5802C16.7163 14.7118 16.8207 14.868 16.892 15.0399C16.9633 15.2119 17 15.3962 17 15.5824C17 15.7685 16.9633 15.9529 16.892 16.1248C16.8207 16.2968 16.7163 16.453 16.5846 16.5846Z" fill="#FA5C4F"/>
</svg>
