<svg width="50" height="49" viewBox="0 0 50 49" fill="none" xmlns="http://www.w3.org/2000/svg">
<path d="M49.7165 45.1553C46.059 38.832 40.4226 34.298 33.8448 32.1486C37.0985 30.2117 39.6264 27.2602 41.0403 23.7476C42.4542 20.2349 42.676 16.3552 41.6716 12.7043C40.6671 9.05336 38.492 5.83311 35.4802 3.53804C32.4684 1.24297 28.7866 0 25 0C21.2134 0 17.5316 1.24297 14.5198 3.53804C11.508 5.83311 9.3329 9.05336 8.32845 12.7043C7.32399 16.3552 7.54576 20.2349 8.95968 23.7476C10.3736 27.2602 12.9015 30.2117 16.1552 32.1486C9.57738 34.2956 3.941 38.8296 0.283468 45.1553C0.14934 45.374 0.0603735 45.6173 0.0218183 45.871C-0.0167369 46.1246 -0.00410006 46.3834 0.0589831 46.6321C0.122066 46.8808 0.234318 47.1143 0.389115 47.3189C0.543913 47.5235 0.738119 47.695 0.960278 47.8233C1.18244 47.9516 1.42805 48.0342 1.68262 48.066C1.93719 48.0979 2.19556 48.0785 2.44249 48.0088C2.68943 47.9392 2.91992 47.8209 3.12036 47.6607C3.32081 47.5006 3.48716 47.302 3.60958 47.0765C8.13406 39.2571 16.1312 34.5885 25 34.5885C33.8688 34.5885 41.8659 39.2571 46.3904 47.0765C46.5128 47.302 46.6792 47.5006 46.8796 47.6607C47.0801 47.8209 47.3106 47.9392 47.5575 48.0088C47.8044 48.0785 48.0628 48.0979 48.3174 48.066C48.5719 48.0342 48.8176 47.9516 49.0397 47.8233C49.2619 47.695 49.4561 47.5235 49.6109 47.3189C49.7657 47.1143 49.8779 46.8808 49.941 46.6321C50.0041 46.3834 50.0167 46.1246 49.9782 45.871C49.9396 45.6173 49.8507 45.374 49.7165 45.1553ZM11.5514 17.2975C11.5514 14.6377 12.3402 12.0375 13.8179 9.82592C15.2957 7.61432 17.3961 5.89058 19.8535 4.87269C22.3109 3.8548 25.0149 3.58847 27.6237 4.10739C30.2325 4.6263 32.6287 5.90716 34.5096 7.78797C36.3904 9.66879 37.6712 12.0651 38.1901 14.6739C38.7091 17.2826 38.4427 19.9867 37.4248 22.4441C36.407 24.9015 34.6832 27.0019 32.4716 28.4796C30.26 29.9574 27.6599 30.7461 25 30.7461C21.4344 30.7423 18.0159 29.3242 15.4946 26.8029C12.9734 24.2816 11.5553 20.8631 11.5514 17.2975Z" fill="#293352"/>
</svg>
