<svg width="27" height="23" viewBox="0 0 27 23" fill="none" xmlns="http://www.w3.org/2000/svg">
<path d="M22.7891 9.96191C22.7891 10.2271 22.6838 10.4815 22.4962 10.669C22.3087 10.8566 22.0543 10.9619 21.7891 10.9619H16.7891C16.5239 10.9619 16.2696 10.8566 16.082 10.669C15.8945 10.4815 15.7891 10.2271 15.7891 9.96191C15.7891 9.6967 15.8945 9.44234 16.082 9.25481C16.2696 9.06727 16.5239 8.96191 16.7891 8.96191H21.7891C22.0543 8.96191 22.3087 9.06727 22.4962 9.25481C22.6838 9.44234 22.7891 9.6967 22.7891 9.96191ZM21.7891 12.9619H16.7891C16.5239 12.9619 16.2696 13.0673 16.082 13.2548C15.8945 13.4423 15.7891 13.6967 15.7891 13.9619C15.7891 14.2271 15.8945 14.4815 16.082 14.669C16.2696 14.8566 16.5239 14.9619 16.7891 14.9619H21.7891C22.0543 14.9619 22.3087 14.8566 22.4962 14.669C22.6838 14.4815 22.7891 14.2271 22.7891 13.9619C22.7891 13.6967 22.6838 13.4423 22.4962 13.2548C22.3087 13.0673 22.0543 12.9619 21.7891 12.9619ZM26.7891 2.96191V20.9619C26.7891 21.4923 26.5784 22.0011 26.2033 22.3761C25.8283 22.7512 25.3196 22.9619 24.7891 22.9619H2.78912C2.25869 22.9619 1.74998 22.7512 1.37491 22.3761C0.999837 22.0011 0.789124 21.4923 0.789124 20.9619V2.96191C0.789124 2.43148 0.999837 1.92277 1.37491 1.5477C1.74998 1.17263 2.25869 0.961914 2.78912 0.961914H24.7891C25.3196 0.961914 25.8283 1.17263 26.2033 1.5477C26.5784 1.92277 26.7891 2.43148 26.7891 2.96191ZM24.7891 20.9619V2.96191H2.78912V20.9619H24.7891ZM14.7566 16.7119C14.8229 16.9688 14.7845 17.2416 14.6497 17.4701C14.5149 17.6987 14.2948 17.8644 14.0379 17.9307C13.7809 17.997 13.5082 17.9585 13.2796 17.8237C13.0511 17.6889 12.8854 17.4688 12.8191 17.2119C12.4904 15.9294 11.1866 14.9619 9.78787 14.9619C8.38912 14.9619 7.08662 15.9294 6.75662 17.2119C6.69032 17.4688 6.52467 17.6889 6.29611 17.8237C6.06755 17.9585 5.7948 17.997 5.53787 17.9307C5.28095 17.8644 5.06088 17.6987 4.92609 17.4701C4.7913 17.2416 4.75282 16.9688 4.81912 16.7119C5.14362 15.5041 5.91069 14.4626 6.96787 13.7944C6.40608 13.236 6.02276 12.5233 5.86648 11.7467C5.71021 10.9701 5.78803 10.1646 6.09008 9.43235C6.39213 8.70006 6.90481 8.07394 7.56312 7.63336C8.22143 7.19278 8.99573 6.95758 9.78787 6.95758C10.58 6.95758 11.3543 7.19278 12.0126 7.63336C12.6709 8.07394 13.1836 8.70006 13.4857 9.43235C13.7877 10.1646 13.8655 10.9701 13.7093 11.7467C13.553 12.5233 13.1697 13.236 12.6079 13.7944C13.6662 14.4616 14.434 15.5035 14.7579 16.7119H14.7566ZM9.78912 12.9619C10.1847 12.9619 10.5714 12.8446 10.9003 12.6249C11.2292 12.4051 11.4855 12.0927 11.6369 11.7273C11.7883 11.3618 11.8279 10.9597 11.7507 10.5717C11.6735 10.1838 11.483 9.82741 11.2033 9.5477C10.9236 9.268 10.5673 9.07751 10.1793 9.00034C9.79134 8.92317 9.38921 8.96278 9.02376 9.11415C8.6583 9.26553 8.34595 9.52188 8.12618 9.85077C7.90642 10.1797 7.78912 10.5664 7.78912 10.9619C7.78912 11.4923 7.99984 12.0011 8.37491 12.3761C8.74998 12.7512 9.25869 12.9619 9.78912 12.9619Z" fill="#293352"/>
</svg>
